solid Mesh
  facet normal 0.000000 1.000000 0.000000
    outer loop
      vertex 10000.000000 31000.000000 0.000000
      vertex -120000.000000 31000.000000 0.000000
      vertex -120000.000000 31000.000000 12000.000000
    endloop
  endfacet
  facet normal 0.000000 1.000000 -0.000000
    outer loop
      vertex 10000.000000 31000.000000 0.000000
      vertex -120000.000000 31000.000000 12000.000000
      vertex 10000.000000 31000.000000 12000.000000
    endloop
  endfacet
  facet normal 1.000000 0.000000 0.000000
    outer loop
      vertex 10000.000000 1000.000000 0.000000
      vertex 10000.000000 31000.000000 0.000000
      vertex 10000.000000 31000.000000 12000.000000
    endloop
  endfacet
  facet normal 1.000000 0.000000 0.000000
    outer loop
      vertex 10000.000000 1000.000000 0.000000
      vertex 10000.000000 31000.000000 12000.000000
      vertex 10000.000000 1000.000000 12000.000000
    endloop
  endfacet
  facet normal 0.000000 -1.000000 0.000000
    outer loop
      vertex -120000.000000 1000.000000 0.000000
      vertex 10000.000000 1000.000000 0.000000
      vertex 10000.000000 1000.000000 12000.000000
    endloop
  endfacet
  facet normal 0.000000 -1.000000 0.000000
    outer loop
      vertex -120000.000000 1000.000000 0.000000
      vertex 10000.000000 1000.000000 12000.000000
      vertex -120000.000000 1000.000000 12000.000000
    endloop
  endfacet
  facet normal -1.000000 0.000000 0.000000
    outer loop
      vertex -120000.000000 31000.000000 0.000000
      vertex -120000.000000 1000.000000 0.000000
      vertex -120000.000000 1000.000000 12000.000000
    endloop
  endfacet
  facet normal -1.000000 0.000000 0.000000
    outer loop
      vertex -120000.000000 31000.000000 0.000000
      vertex -120000.000000 1000.000000 12000.000000
      vertex -120000.000000 31000.000000 12000.000000
    endloop
  endfacet
  facet normal 0.000000 0.000000 -1.000000
    outer loop
      vertex -120000.000000 31000.000000 0.000000
      vertex 10000.000000 1000.000000 0.000000
      vertex -120000.000000 1000.000000 0.000000
    endloop
  endfacet
  facet normal 0.000000 0.000000 -1.000000
    outer loop
      vertex -120000.000000 31000.000000 0.000000
      vertex 10000.000000 31000.000000 0.000000
      vertex 10000.000000 1000.000000 0.000000
    endloop
  endfacet
  facet normal 0.000000 0.000000 1.000000
    outer loop
      vertex 10000.000000 1000.000000 12000.000000
      vertex -120000.000000 31000.000000 12000.000000
      vertex -120000.000000 1000.000000 12000.000000
    endloop
  endfacet
  facet normal 0.000000 0.000000 1.000000
    outer loop
      vertex 10000.000000 31000.000000 12000.000000
      vertex -120000.000000 31000.000000 12000.000000
      vertex 10000.000000 1000.000000 12000.000000
    endloop
  endfacet
endsolid Mesh
