solid Mesh
  facet normal 0.000000 1.000000 0.000000
    outer loop
      vertex 150.000000 150.000000 6700.000000
      vertex -150.000000 150.000000 6700.000000
      vertex -150.000000 150.000000 7000.000000
    endloop
  endfacet
  facet normal 0.000000 1.000000 -0.000000
    outer loop
      vertex 150.000000 150.000000 6700.000000
      vertex -150.000000 150.000000 7000.000000
      vertex 150.000000 150.000000 7000.000000
    endloop
  endfacet
  facet normal -1.000000 0.000000 0.000000
    outer loop
      vertex -150.000000 150.000000 6700.000000
      vertex -150.000000 -150.000000 6700.000000
      vertex -150.000000 -150.000000 7000.000000
    endloop
  endfacet
  facet normal -1.000000 0.000000 0.000000
    outer loop
      vertex -150.000000 150.000000 6700.000000
      vertex -150.000000 -150.000000 7000.000000
      vertex -150.000000 150.000000 7000.000000
    endloop
  endfacet
  facet normal 1.000000 0.000000 0.000000
    outer loop
      vertex 150.000000 -150.000000 6700.000000
      vertex 150.000000 150.000000 6700.000000
      vertex 150.000000 150.000000 7000.000000
    endloop
  endfacet
  facet normal 1.000000 0.000000 0.000000
    outer loop
      vertex 150.000000 -150.000000 6700.000000
      vertex 150.000000 150.000000 7000.000000
      vertex 150.000000 -150.000000 7000.000000
    endloop
  endfacet
  facet normal 0.000000 0.000000 -1.000000
    outer loop
      vertex -150.000000 150.000000 6700.000000
      vertex 150.000000 150.000000 6700.000000
      vertex -150.000000 -150.000000 6700.000000
    endloop
  endfacet
  facet normal 0.000000 0.000000 -1.000000
    outer loop
      vertex -150.000000 -150.000000 6700.000000
      vertex 150.000000 150.000000 6700.000000
      vertex 150.000000 -150.000000 6700.000000
    endloop
  endfacet
  facet normal 0.000000 0.000000 1.000000
    outer loop
      vertex 98.000000 -98.000000 7000.000000
      vertex -150.000000 -150.000000 7000.000000
      vertex 150.000000 -150.000000 7000.000000
    endloop
  endfacet
  facet normal 0.000000 0.000000 1.000000
    outer loop
      vertex 98.000000 -98.000000 7000.000000
      vertex -98.000000 -98.000000 7000.000000
      vertex -150.000000 -150.000000 7000.000000
    endloop
  endfacet
  facet normal 0.000000 0.000000 1.000000
    outer loop
      vertex -98.000000 98.000000 7000.000000
      vertex -150.000000 150.000000 7000.000000
      vertex -150.000000 -150.000000 7000.000000
    endloop
  endfacet
  facet normal 0.000000 0.000000 1.000000
    outer loop
      vertex -98.000000 98.000000 7000.000000
      vertex -150.000000 -150.000000 7000.000000
      vertex -98.000000 -98.000000 7000.000000
    endloop
  endfacet
  facet normal 0.000000 0.000000 1.000000
    outer loop
      vertex 150.000000 150.000000 7000.000000
      vertex -98.000000 98.000000 7000.000000
      vertex 98.000000 98.000000 7000.000000
    endloop
  endfacet
  facet normal 0.000000 0.000000 1.000000
    outer loop
      vertex 150.000000 150.000000 7000.000000
      vertex 98.000000 98.000000 7000.000000
      vertex 98.000000 -98.000000 7000.000000
    endloop
  endfacet
  facet normal 0.000000 0.000000 1.000000
    outer loop
      vertex 150.000000 150.000000 7000.000000
      vertex -150.000000 150.000000 7000.000000
      vertex -98.000000 98.000000 7000.000000
    endloop
  endfacet
  facet normal 0.000000 0.000000 1.000000
    outer loop
      vertex 150.000000 150.000000 7000.000000
      vertex 98.000000 -98.000000 7000.000000
      vertex 150.000000 -150.000000 7000.000000
    endloop
  endfacet
  facet normal 0.000000 -1.000000 0.000000
    outer loop
      vertex -150.000000 -150.000000 6700.000000
      vertex 150.000000 -150.000000 6700.000000
      vertex 150.000000 -150.000000 7000.000000
    endloop
  endfacet
  facet normal 0.000000 -1.000000 0.000000
    outer loop
      vertex -150.000000 -150.000000 6700.000000
      vertex 150.000000 -150.000000 7000.000000
      vertex -150.000000 -150.000000 7000.000000
    endloop
  endfacet
  facet normal 1.000000 0.000000 0.000000
    outer loop
      vertex -98.000000 98.000000 7000.000000
      vertex -98.000000 -98.000000 7000.000000
      vertex -98.000000 -98.000000 6804.000000
    endloop
  endfacet
  facet normal 1.000000 0.000000 0.000000
    outer loop
      vertex -98.000000 98.000000 7000.000000
      vertex -98.000000 -98.000000 6804.000000
      vertex -98.000000 98.000000 6804.000000
    endloop
  endfacet
  facet normal -0.000000 1.000000 0.000000
    outer loop
      vertex -98.000000 -98.000000 7000.000000
      vertex 98.000000 -98.000000 7000.000000
      vertex 98.000000 -98.000000 6804.000000
    endloop
  endfacet
  facet normal 0.000000 1.000000 0.000000
    outer loop
      vertex -98.000000 -98.000000 7000.000000
      vertex 98.000000 -98.000000 6804.000000
      vertex -98.000000 -98.000000 6804.000000
    endloop
  endfacet
  facet normal -1.000000 0.000000 0.000000
    outer loop
      vertex 98.000000 -98.000000 7000.000000
      vertex 98.000000 98.000000 7000.000000
      vertex 98.000000 98.000000 6804.000000
    endloop
  endfacet
  facet normal -1.000000 0.000000 0.000000
    outer loop
      vertex 98.000000 -98.000000 7000.000000
      vertex 98.000000 98.000000 6804.000000
      vertex 98.000000 -98.000000 6804.000000
    endloop
  endfacet
  facet normal -0.000000 -1.000000 0.000000
    outer loop
      vertex 98.000000 98.000000 7000.000000
      vertex -98.000000 98.000000 7000.000000
      vertex -98.000000 98.000000 6804.000000
    endloop
  endfacet
  facet normal 0.000000 -1.000000 -0.000000
    outer loop
      vertex 98.000000 98.000000 7000.000000
      vertex -98.000000 98.000000 6804.000000
      vertex 98.000000 98.000000 6804.000000
    endloop
  endfacet
  facet normal 0.000000 0.000000 1.000000
    outer loop
      vertex 98.000000 98.000000 6804.000000
      vertex -98.000000 98.000000 6804.000000
      vertex -98.000000 -98.000000 6804.000000
    endloop
  endfacet
  facet normal 0.000000 0.000000 1.000000
    outer loop
      vertex 98.000000 98.000000 6804.000000
      vertex -98.000000 -98.000000 6804.000000
      vertex 98.000000 -98.000000 6804.000000
    endloop
  endfacet
endsolid Mesh
