solid Mesh
  facet normal 0.000000 1.000000 0.000000
    outer loop
      vertex 100000.000000 0.000000 0.000000
      vertex -200000.000000 0.000000 0.000000
      vertex -200000.000000 0.000000 5000.000000
    endloop
  endfacet
  facet normal 0.000000 1.000000 -0.000000
    outer loop
      vertex 100000.000000 0.000000 0.000000
      vertex -200000.000000 0.000000 5000.000000
      vertex 100000.000000 0.000000 5000.000000
    endloop
  endfacet
  facet normal 1.000000 0.000000 0.000000
    outer loop
      vertex 100000.000000 -50000.000000 0.000000
      vertex 100000.000000 0.000000 0.000000
      vertex 100000.000000 0.000000 5000.000000
    endloop
  endfacet
  facet normal 1.000000 0.000000 0.000000
    outer loop
      vertex 100000.000000 -50000.000000 0.000000
      vertex 100000.000000 0.000000 5000.000000
      vertex 100000.000000 -50000.000000 5000.000000
    endloop
  endfacet
  facet normal 0.000000 -1.000000 0.000000
    outer loop
      vertex -200000.000000 -50000.000000 0.000000
      vertex 100000.000000 -50000.000000 0.000000
      vertex 100000.000000 -50000.000000 5000.000000
    endloop
  endfacet
  facet normal 0.000000 -1.000000 0.000000
    outer loop
      vertex -200000.000000 -50000.000000 0.000000
      vertex 100000.000000 -50000.000000 5000.000000
      vertex -200000.000000 -50000.000000 5000.000000
    endloop
  endfacet
  facet normal -1.000000 0.000000 0.000000
    outer loop
      vertex -200000.000000 0.000000 0.000000
      vertex -200000.000000 -50000.000000 0.000000
      vertex -200000.000000 -50000.000000 5000.000000
    endloop
  endfacet
  facet normal -1.000000 0.000000 0.000000
    outer loop
      vertex -200000.000000 0.000000 0.000000
      vertex -200000.000000 -50000.000000 5000.000000
      vertex -200000.000000 0.000000 5000.000000
    endloop
  endfacet
  facet normal 0.000000 0.000000 -1.000000
    outer loop
      vertex -200000.000000 0.000000 0.000000
      vertex 100000.000000 0.000000 0.000000
      vertex -200000.000000 -50000.000000 0.000000
    endloop
  endfacet
  facet normal 0.000000 0.000000 -1.000000
    outer loop
      vertex -200000.000000 -50000.000000 0.000000
      vertex 100000.000000 0.000000 0.000000
      vertex 100000.000000 -50000.000000 0.000000
    endloop
  endfacet
  facet normal 0.000000 0.000000 1.000000
    outer loop
      vertex 100000.000000 0.000000 5000.000000
      vertex -200000.000000 0.000000 5000.000000
      vertex -200000.000000 -50000.000000 5000.000000
    endloop
  endfacet
  facet normal 0.000000 0.000000 1.000000
    outer loop
      vertex 100000.000000 0.000000 5000.000000
      vertex -200000.000000 -50000.000000 5000.000000
      vertex 100000.000000 -50000.000000 5000.000000
    endloop
  endfacet
endsolid Mesh
