solid Mesh
 facet normal 0 1 0
  outer loop
   vertex 0.25 0.25 6.5
   vertex -0.25 0.25 6.5
   vertex -0.25 0.25 7
  endloop
 endfacet
 facet normal 0 1 -0
  outer loop
   vertex 0.25 0.25 6.5
   vertex -0.25 0.25 7
   vertex 0.25 0.25 7
  endloop
 endfacet
 facet normal -1 0 0
  outer loop
   vertex -0.25 0.25 6.5
   vertex -0.25 -0.25 6.5
   vertex -0.25 -0.25 7
  endloop
 endfacet
 facet normal -1 0 0
  outer loop
   vertex -0.25 0.25 6.5
   vertex -0.25 -0.25 7
   vertex -0.25 0.25 7
  endloop
 endfacet
 facet normal 1 0 0
  outer loop
   vertex 0.25 -0.25 6.5
   vertex 0.25 0.25 6.5
   vertex 0.25 0.25 7
  endloop
 endfacet
 facet normal 1 0 0
  outer loop
   vertex 0.25 -0.25 6.5
   vertex 0.25 0.25 7
   vertex 0.25 -0.25 7
  endloop
 endfacet
 facet normal 0 0 -1
  outer loop
   vertex -0.25 0.25 6.5
   vertex 0.25 0.25 6.5
   vertex -0.25 -0.25 6.5
  endloop
 endfacet
 facet normal 0 0 -1
  outer loop
   vertex -0.25 -0.25 6.5
   vertex 0.25 0.25 6.5
   vertex 0.25 -0.25 6.5
  endloop
 endfacet
 facet normal 0 0 1
  outer loop
   vertex 0.155 -0.155 7
   vertex -0.25 -0.25 7
   vertex 0.25 -0.25 7
  endloop
 endfacet
 facet normal 0 0 1
  outer loop
   vertex 0.155 -0.155 7
   vertex -0.155 -0.155 7
   vertex -0.25 -0.25 7
  endloop
 endfacet
 facet normal 0 0 1
  outer loop
   vertex -0.155 0.155 7
   vertex -0.25 0.25 7
   vertex -0.25 -0.25 7
  endloop
 endfacet
 facet normal 0 0 1
  outer loop
   vertex -0.155 0.155 7
   vertex -0.25 -0.25 7
   vertex -0.155 -0.155 7
  endloop
 endfacet
 facet normal 0 0 1
  outer loop
   vertex 0.25 0.25 7
   vertex -0.155 0.155 7
   vertex 0.155 0.155 7
  endloop
 endfacet
 facet normal 0 0 1
  outer loop
   vertex 0.25 0.25 7
   vertex 0.155 0.155 7
   vertex 0.155 -0.155 7
  endloop
 endfacet
 facet normal 0 0 1
  outer loop
   vertex 0.25 0.25 7
   vertex -0.25 0.25 7
   vertex -0.155 0.155 7
  endloop
 endfacet
 facet normal 0 0 1
  outer loop
   vertex 0.25 0.25 7
   vertex 0.155 -0.155 7
   vertex 0.25 -0.25 7
  endloop
 endfacet
 facet normal 0 -1 0
  outer loop
   vertex -0.25 -0.25 6.5
   vertex 0.25 -0.25 6.5
   vertex 0.25 -0.25 7
  endloop
 endfacet
 facet normal 0 -1 0
  outer loop
   vertex -0.25 -0.25 6.5
   vertex 0.25 -0.25 7
   vertex -0.25 -0.25 7
  endloop
 endfacet
 facet normal 1 0 0
  outer loop
   vertex -0.155 0.155 7
   vertex -0.155 -0.155 7
   vertex -0.155 -0.155 6.69
  endloop
 endfacet
 facet normal 1 0 0
  outer loop
   vertex -0.155 0.155 7
   vertex -0.155 -0.155 6.69
   vertex -0.155 0.155 6.69
  endloop
 endfacet
 facet normal -0 1 0
  outer loop
   vertex -0.155 -0.155 7
   vertex 0.155 -0.155 7
   vertex 0.155 -0.155 6.69
  endloop
 endfacet
 facet normal 0 1 0
  outer loop
   vertex -0.155 -0.155 7
   vertex 0.155 -0.155 6.69
   vertex -0.155 -0.155 6.69
  endloop
 endfacet
 facet normal -1 0 0
  outer loop
   vertex 0.155 -0.155 7
   vertex 0.155 0.155 7
   vertex 0.155 0.155 6.69
  endloop
 endfacet
 facet normal -1 0 0
  outer loop
   vertex 0.155 -0.155 7
   vertex 0.155 0.155 6.69
   vertex 0.155 -0.155 6.69
  endloop
 endfacet
 facet normal -0 -1 0
  outer loop
   vertex 0.155 0.155 7
   vertex -0.155 0.155 7
   vertex -0.155 0.155 6.69
  endloop
 endfacet
 facet normal 0 -1 -0
  outer loop
   vertex 0.155 0.155 7
   vertex -0.155 0.155 6.69
   vertex 0.155 0.155 6.69
  endloop
 endfacet
 facet normal 0 0 1
  outer loop
   vertex 0.155 0.155 6.69
   vertex -0.155 0.155 6.69
   vertex -0.155 -0.155 6.69
  endloop
 endfacet
 facet normal 0 0 1
  outer loop
   vertex 0.155 0.155 6.69
   vertex -0.155 -0.155 6.69
   vertex 0.155 -0.155 6.69
  endloop
 endfacet
endsolid Mesh
