solid Mesh
 facet normal 0 1 0
  outer loop
   vertex 100 0 0
   vertex -400 0 0
   vertex -400 0 5
  endloop
 endfacet
 facet normal 0 1 -0
  outer loop
   vertex 100 0 0
   vertex -400 0 5
   vertex 100 0 5
  endloop
 endfacet
 facet normal 1 0 0
  outer loop
   vertex 100 -100 0
   vertex 100 0 0
   vertex 100 0 5
  endloop
 endfacet
 facet normal 1 0 0
  outer loop
   vertex 100 -100 0
   vertex 100 0 5
   vertex 100 -100 5
  endloop
 endfacet
 facet normal 0 -1 0
  outer loop
   vertex -400 -100 0
   vertex 100 -100 0
   vertex 100 -100 5
  endloop
 endfacet
 facet normal 0 -1 0
  outer loop
   vertex -400 -100 0
   vertex 100 -100 5
   vertex -400 -100 5
  endloop
 endfacet
 facet normal -1 0 0
  outer loop
   vertex -400 0 0
   vertex -400 -100 0
   vertex -400 -100 5
  endloop
 endfacet
 facet normal -1 0 0
  outer loop
   vertex -400 0 0
   vertex -400 -100 5
   vertex -400 0 5
  endloop
 endfacet
 facet normal 0 0 -1
  outer loop
   vertex -400 0 0
   vertex 100 -100 0
   vertex -400 -100 0
  endloop
 endfacet
 facet normal 0 0 -1
  outer loop
   vertex -400 0 0
   vertex 100 0 0
   vertex 100 -100 0
  endloop
 endfacet
 facet normal 0 0 1
  outer loop
   vertex 100 -100 5
   vertex -400 0 5
   vertex -400 -100 5
  endloop
 endfacet
 facet normal 0 0 1
  outer loop
   vertex 100 0 5
   vertex -400 0 5
   vertex 100 -100 5
  endloop
 endfacet
endsolid Mesh
