solid Mesh
  facet normal 0.000000 1.000000 0.000000
    outer loop
      vertex 250.000000 250.000000 6500.000000
      vertex -250.000000 250.000000 6500.000000
      vertex -250.000000 250.000000 7000.000000
    endloop
  endfacet
  facet normal 0.000000 1.000000 -0.000000
    outer loop
      vertex 250.000000 250.000000 6500.000000
      vertex -250.000000 250.000000 7000.000000
      vertex 250.000000 250.000000 7000.000000
    endloop
  endfacet
  facet normal -1.000000 0.000000 0.000000
    outer loop
      vertex -250.000000 250.000000 6500.000000
      vertex -250.000000 -250.000000 6500.000000
      vertex -250.000000 -250.000000 7000.000000
    endloop
  endfacet
  facet normal -1.000000 0.000000 0.000000
    outer loop
      vertex -250.000000 250.000000 6500.000000
      vertex -250.000000 -250.000000 7000.000000
      vertex -250.000000 250.000000 7000.000000
    endloop
  endfacet
  facet normal 1.000000 0.000000 0.000000
    outer loop
      vertex 250.000000 -250.000000 6500.000000
      vertex 250.000000 250.000000 6500.000000
      vertex 250.000000 250.000000 7000.000000
    endloop
  endfacet
  facet normal 1.000000 0.000000 0.000000
    outer loop
      vertex 250.000000 -250.000000 6500.000000
      vertex 250.000000 250.000000 7000.000000
      vertex 250.000000 -250.000000 7000.000000
    endloop
  endfacet
  facet normal 0.000000 0.000000 -1.000000
    outer loop
      vertex -250.000000 250.000000 6500.000000
      vertex 250.000000 250.000000 6500.000000
      vertex -250.000000 -250.000000 6500.000000
    endloop
  endfacet
  facet normal 0.000000 0.000000 -1.000000
    outer loop
      vertex -250.000000 -250.000000 6500.000000
      vertex 250.000000 250.000000 6500.000000
      vertex 250.000000 -250.000000 6500.000000
    endloop
  endfacet
  facet normal 0.000000 0.000000 1.000000
    outer loop
      vertex 155.000000 -155.000000 7000.000000
      vertex -250.000000 -250.000000 7000.000000
      vertex 250.000000 -250.000000 7000.000000
    endloop
  endfacet
  facet normal 0.000000 0.000000 1.000000
    outer loop
      vertex 155.000000 -155.000000 7000.000000
      vertex -155.000000 -155.000000 7000.000000
      vertex -250.000000 -250.000000 7000.000000
    endloop
  endfacet
  facet normal 0.000000 0.000000 1.000000
    outer loop
      vertex -155.000000 155.000000 7000.000000
      vertex -250.000000 250.000000 7000.000000
      vertex -250.000000 -250.000000 7000.000000
    endloop
  endfacet
  facet normal 0.000000 0.000000 1.000000
    outer loop
      vertex -155.000000 155.000000 7000.000000
      vertex -250.000000 -250.000000 7000.000000
      vertex -155.000000 -155.000000 7000.000000
    endloop
  endfacet
  facet normal 0.000000 0.000000 1.000000
    outer loop
      vertex 250.000000 250.000000 7000.000000
      vertex -155.000000 155.000000 7000.000000
      vertex 155.000000 155.000000 7000.000000
    endloop
  endfacet
  facet normal 0.000000 0.000000 1.000000
    outer loop
      vertex 250.000000 250.000000 7000.000000
      vertex 155.000000 155.000000 7000.000000
      vertex 155.000000 -155.000000 7000.000000
    endloop
  endfacet
  facet normal 0.000000 0.000000 1.000000
    outer loop
      vertex 250.000000 250.000000 7000.000000
      vertex -250.000000 250.000000 7000.000000
      vertex -155.000000 155.000000 7000.000000
    endloop
  endfacet
  facet normal 0.000000 0.000000 1.000000
    outer loop
      vertex 250.000000 250.000000 7000.000000
      vertex 155.000000 -155.000000 7000.000000
      vertex 250.000000 -250.000000 7000.000000
    endloop
  endfacet
  facet normal 0.000000 -1.000000 0.000000
    outer loop
      vertex -250.000000 -250.000000 6500.000000
      vertex 250.000000 -250.000000 6500.000000
      vertex 250.000000 -250.000000 7000.000000
    endloop
  endfacet
  facet normal 0.000000 -1.000000 0.000000
    outer loop
      vertex -250.000000 -250.000000 6500.000000
      vertex 250.000000 -250.000000 7000.000000
      vertex -250.000000 -250.000000 7000.000000
    endloop
  endfacet
  facet normal 1.000000 0.000000 0.000000
    outer loop
      vertex -155.000000 155.000000 7000.000000
      vertex -155.000000 -155.000000 7000.000000
      vertex -155.000000 -155.000000 6690.000000
    endloop
  endfacet
  facet normal 1.000000 0.000000 0.000000
    outer loop
      vertex -155.000000 155.000000 7000.000000
      vertex -155.000000 -155.000000 6690.000000
      vertex -155.000000 155.000000 6690.000000
    endloop
  endfacet
  facet normal -0.000000 1.000000 0.000000
    outer loop
      vertex -155.000000 -155.000000 7000.000000
      vertex 155.000000 -155.000000 7000.000000
      vertex 155.000000 -155.000000 6690.000000
    endloop
  endfacet
  facet normal 0.000000 1.000000 0.000000
    outer loop
      vertex -155.000000 -155.000000 7000.000000
      vertex 155.000000 -155.000000 6690.000000
      vertex -155.000000 -155.000000 6690.000000
    endloop
  endfacet
  facet normal -1.000000 0.000000 0.000000
    outer loop
      vertex 155.000000 -155.000000 7000.000000
      vertex 155.000000 155.000000 7000.000000
      vertex 155.000000 155.000000 6690.000000
    endloop
  endfacet
  facet normal -1.000000 0.000000 0.000000
    outer loop
      vertex 155.000000 -155.000000 7000.000000
      vertex 155.000000 155.000000 6690.000000
      vertex 155.000000 -155.000000 6690.000000
    endloop
  endfacet
  facet normal -0.000000 -1.000000 0.000000
    outer loop
      vertex 155.000000 155.000000 7000.000000
      vertex -155.000000 155.000000 7000.000000
      vertex -155.000000 155.000000 6690.000000
    endloop
  endfacet
  facet normal 0.000000 -1.000000 -0.000000
    outer loop
      vertex 155.000000 155.000000 7000.000000
      vertex -155.000000 155.000000 6690.000000
      vertex 155.000000 155.000000 6690.000000
    endloop
  endfacet
  facet normal 0.000000 0.000000 1.000000
    outer loop
      vertex 155.000000 155.000000 6690.000000
      vertex -155.000000 155.000000 6690.000000
      vertex -155.000000 -155.000000 6690.000000
    endloop
  endfacet
  facet normal 0.000000 0.000000 1.000000
    outer loop
      vertex 155.000000 155.000000 6690.000000
      vertex -155.000000 -155.000000 6690.000000
      vertex 155.000000 -155.000000 6690.000000
    endloop
  endfacet
endsolid Mesh
