solid Mesh
 facet normal 0 1 0
  outer loop
   vertex 1.25 1.25 4.5
   vertex -1.25 1.25 4.5
   vertex -1.25 1.25 7
  endloop
 endfacet
 facet normal 0 1 -0
  outer loop
   vertex 1.25 1.25 4.5
   vertex -1.25 1.25 7
   vertex 1.25 1.25 7
  endloop
 endfacet
 facet normal -1 0 0
  outer loop
   vertex -1.25 1.25 4.5
   vertex -1.25 -1.25 4.5
   vertex -1.25 -1.25 7
  endloop
 endfacet
 facet normal -1 0 0
  outer loop
   vertex -1.25 1.25 4.5
   vertex -1.25 -1.25 7
   vertex -1.25 1.25 7
  endloop
 endfacet
 facet normal 1 0 0
  outer loop
   vertex 1.25 -1.25 4.5
   vertex 1.25 1.25 4.5
   vertex 1.25 1.25 7
  endloop
 endfacet
 facet normal 1 0 0
  outer loop
   vertex 1.25 -1.25 4.5
   vertex 1.25 1.25 7
   vertex 1.25 -1.25 7
  endloop
 endfacet
 facet normal 0 0 -1
  outer loop
   vertex -1.25 1.25 4.5
   vertex 1.25 1.25 4.5
   vertex -1.25 -1.25 4.5
  endloop
 endfacet
 facet normal 0 0 -1
  outer loop
   vertex -1.25 -1.25 4.5
   vertex 1.25 1.25 4.5
   vertex 1.25 -1.25 4.5
  endloop
 endfacet
 facet normal 0 0 1
  outer loop
   vertex 0.489 -0.489 7
   vertex -1.25 -1.25 7
   vertex 1.25 -1.25 7
  endloop
 endfacet
 facet normal 0 0 1
  outer loop
   vertex 0.489 -0.489 7
   vertex -0.489 -0.489 7
   vertex -1.25 -1.25 7
  endloop
 endfacet
 facet normal 0 0 1
  outer loop
   vertex -0.489 0.489 7
   vertex -1.25 1.25 7
   vertex -1.25 -1.25 7
  endloop
 endfacet
 facet normal 0 0 1
  outer loop
   vertex -0.489 0.489 7
   vertex -1.25 -1.25 7
   vertex -0.489 -0.489 7
  endloop
 endfacet
 facet normal 0 0 1
  outer loop
   vertex 1.25 1.25 7
   vertex -0.489 0.489 7
   vertex 0.489 0.489 7
  endloop
 endfacet
 facet normal 0 0 1
  outer loop
   vertex 1.25 1.25 7
   vertex 0.489 0.489 7
   vertex 0.489 -0.489 7
  endloop
 endfacet
 facet normal 0 0 1
  outer loop
   vertex 1.25 1.25 7
   vertex -1.25 1.25 7
   vertex -0.489 0.489 7
  endloop
 endfacet
 facet normal 0 0 1
  outer loop
   vertex 1.25 1.25 7
   vertex 0.489 -0.489 7
   vertex 1.25 -1.25 7
  endloop
 endfacet
 facet normal 0 -1 0
  outer loop
   vertex -1.25 -1.25 4.5
   vertex 1.25 -1.25 4.5
   vertex 1.25 -1.25 7
  endloop
 endfacet
 facet normal 0 -1 0
  outer loop
   vertex -1.25 -1.25 4.5
   vertex 1.25 -1.25 7
   vertex -1.25 -1.25 7
  endloop
 endfacet
 facet normal 1 0 0
  outer loop
   vertex -0.489 0.489 7
   vertex -0.489 -0.489 7
   vertex -0.489 -0.489 6.022
  endloop
 endfacet
 facet normal 1 0 0
  outer loop
   vertex -0.489 0.489 7
   vertex -0.489 -0.489 6.022
   vertex -0.489 0.489 6.022
  endloop
 endfacet
 facet normal -0 1 0
  outer loop
   vertex -0.489 -0.489 7
   vertex 0.489 -0.489 7
   vertex 0.489 -0.489 6.022
  endloop
 endfacet
 facet normal 0 1 0
  outer loop
   vertex -0.489 -0.489 7
   vertex 0.489 -0.489 6.022
   vertex -0.489 -0.489 6.022
  endloop
 endfacet
 facet normal -1 0 0
  outer loop
   vertex 0.489 -0.489 7
   vertex 0.489 0.489 7
   vertex 0.489 0.489 6.022
  endloop
 endfacet
 facet normal -1 0 0
  outer loop
   vertex 0.489 -0.489 7
   vertex 0.489 0.489 6.022
   vertex 0.489 -0.489 6.022
  endloop
 endfacet
 facet normal -0 -1 0
  outer loop
   vertex 0.489 0.489 7
   vertex -0.489 0.489 7
   vertex -0.489 0.489 6.022
  endloop
 endfacet
 facet normal 0 -1 -0
  outer loop
   vertex 0.489 0.489 7
   vertex -0.489 0.489 6.022
   vertex 0.489 0.489 6.022
  endloop
 endfacet
 facet normal 0 0 1
  outer loop
   vertex 0.489 0.489 6.022
   vertex -0.489 0.489 6.022
   vertex -0.489 -0.489 6.022
  endloop
 endfacet
 facet normal 0 0 1
  outer loop
   vertex 0.489 0.489 6.022
   vertex -0.489 -0.489 6.022
   vertex 0.489 -0.489 6.022
  endloop
 endfacet
endsolid Mesh
