solid Mesh
  facet normal 0.000000 1.000000 0.000000
    outer loop
      vertex 1250.000000 1250.000000 4500.000000
      vertex -1250.000000 1250.000000 4500.000000
      vertex -1250.000000 1250.000000 7000.000000
    endloop
  endfacet
  facet normal 0.000000 1.000000 -0.000000
    outer loop
      vertex 1250.000000 1250.000000 4500.000000
      vertex -1250.000000 1250.000000 7000.000000
      vertex 1250.000000 1250.000000 7000.000000
    endloop
  endfacet
  facet normal -1.000000 0.000000 0.000000
    outer loop
      vertex -1250.000000 1250.000000 4500.000000
      vertex -1250.000000 -1250.000000 4500.000000
      vertex -1250.000000 -1250.000000 7000.000000
    endloop
  endfacet
  facet normal -1.000000 0.000000 0.000000
    outer loop
      vertex -1250.000000 1250.000000 4500.000000
      vertex -1250.000000 -1250.000000 7000.000000
      vertex -1250.000000 1250.000000 7000.000000
    endloop
  endfacet
  facet normal 1.000000 0.000000 0.000000
    outer loop
      vertex 1250.000000 -1250.000000 4500.000000
      vertex 1250.000000 1250.000000 4500.000000
      vertex 1250.000000 1250.000000 7000.000000
    endloop
  endfacet
  facet normal 1.000000 0.000000 0.000000
    outer loop
      vertex 1250.000000 -1250.000000 4500.000000
      vertex 1250.000000 1250.000000 7000.000000
      vertex 1250.000000 -1250.000000 7000.000000
    endloop
  endfacet
  facet normal 0.000000 0.000000 -1.000000
    outer loop
      vertex -1250.000000 1250.000000 4500.000000
      vertex 1250.000000 1250.000000 4500.000000
      vertex -1250.000000 -1250.000000 4500.000000
    endloop
  endfacet
  facet normal 0.000000 0.000000 -1.000000
    outer loop
      vertex -1250.000000 -1250.000000 4500.000000
      vertex 1250.000000 1250.000000 4500.000000
      vertex 1250.000000 -1250.000000 4500.000000
    endloop
  endfacet
  facet normal 0.000000 0.000000 1.000000
    outer loop
      vertex 489.000000 -489.000000 7000.000000
      vertex -1250.000000 -1250.000000 7000.000000
      vertex 1250.000000 -1250.000000 7000.000000
    endloop
  endfacet
  facet normal 0.000000 0.000000 1.000000
    outer loop
      vertex 489.000000 -489.000000 7000.000000
      vertex -489.000000 -489.000000 7000.000000
      vertex -1250.000000 -1250.000000 7000.000000
    endloop
  endfacet
  facet normal 0.000000 0.000000 1.000000
    outer loop
      vertex -489.000000 489.000000 7000.000000
      vertex -1250.000000 1250.000000 7000.000000
      vertex -1250.000000 -1250.000000 7000.000000
    endloop
  endfacet
  facet normal 0.000000 0.000000 1.000000
    outer loop
      vertex -489.000000 489.000000 7000.000000
      vertex -1250.000000 -1250.000000 7000.000000
      vertex -489.000000 -489.000000 7000.000000
    endloop
  endfacet
  facet normal 0.000000 0.000000 1.000000
    outer loop
      vertex 1250.000000 1250.000000 7000.000000
      vertex -489.000000 489.000000 7000.000000
      vertex 489.000000 489.000000 7000.000000
    endloop
  endfacet
  facet normal 0.000000 0.000000 1.000000
    outer loop
      vertex 1250.000000 1250.000000 7000.000000
      vertex 489.000000 489.000000 7000.000000
      vertex 489.000000 -489.000000 7000.000000
    endloop
  endfacet
  facet normal 0.000000 0.000000 1.000000
    outer loop
      vertex 1250.000000 1250.000000 7000.000000
      vertex -1250.000000 1250.000000 7000.000000
      vertex -489.000000 489.000000 7000.000000
    endloop
  endfacet
  facet normal 0.000000 0.000000 1.000000
    outer loop
      vertex 1250.000000 1250.000000 7000.000000
      vertex 489.000000 -489.000000 7000.000000
      vertex 1250.000000 -1250.000000 7000.000000
    endloop
  endfacet
  facet normal 0.000000 -1.000000 0.000000
    outer loop
      vertex -1250.000000 -1250.000000 4500.000000
      vertex 1250.000000 -1250.000000 4500.000000
      vertex 1250.000000 -1250.000000 7000.000000
    endloop
  endfacet
  facet normal 0.000000 -1.000000 0.000000
    outer loop
      vertex -1250.000000 -1250.000000 4500.000000
      vertex 1250.000000 -1250.000000 7000.000000
      vertex -1250.000000 -1250.000000 7000.000000
    endloop
  endfacet
  facet normal 1.000000 0.000000 0.000000
    outer loop
      vertex -489.000000 489.000000 7000.000000
      vertex -489.000000 -489.000000 7000.000000
      vertex -489.000000 -489.000000 6022.000000
    endloop
  endfacet
  facet normal 1.000000 0.000000 0.000000
    outer loop
      vertex -489.000000 489.000000 7000.000000
      vertex -489.000000 -489.000000 6022.000000
      vertex -489.000000 489.000000 6022.000000
    endloop
  endfacet
  facet normal -0.000000 1.000000 0.000000
    outer loop
      vertex -489.000000 -489.000000 7000.000000
      vertex 489.000000 -489.000000 7000.000000
      vertex 489.000000 -489.000000 6022.000000
    endloop
  endfacet
  facet normal 0.000000 1.000000 0.000000
    outer loop
      vertex -489.000000 -489.000000 7000.000000
      vertex 489.000000 -489.000000 6022.000000
      vertex -489.000000 -489.000000 6022.000000
    endloop
  endfacet
  facet normal -1.000000 0.000000 0.000000
    outer loop
      vertex 489.000000 -489.000000 7000.000000
      vertex 489.000000 489.000000 7000.000000
      vertex 489.000000 489.000000 6022.000000
    endloop
  endfacet
  facet normal -1.000000 0.000000 0.000000
    outer loop
      vertex 489.000000 -489.000000 7000.000000
      vertex 489.000000 489.000000 6022.000000
      vertex 489.000000 -489.000000 6022.000000
    endloop
  endfacet
  facet normal -0.000000 -1.000000 0.000000
    outer loop
      vertex 489.000000 489.000000 7000.000000
      vertex -489.000000 489.000000 7000.000000
      vertex -489.000000 489.000000 6022.000000
    endloop
  endfacet
  facet normal 0.000000 -1.000000 -0.000000
    outer loop
      vertex 489.000000 489.000000 7000.000000
      vertex -489.000000 489.000000 6022.000000
      vertex 489.000000 489.000000 6022.000000
    endloop
  endfacet
  facet normal 0.000000 0.000000 1.000000
    outer loop
      vertex 489.000000 489.000000 6022.000000
      vertex -489.000000 489.000000 6022.000000
      vertex -489.000000 -489.000000 6022.000000
    endloop
  endfacet
  facet normal 0.000000 0.000000 1.000000
    outer loop
      vertex 489.000000 489.000000 6022.000000
      vertex -489.000000 -489.000000 6022.000000
      vertex 489.000000 -489.000000 6022.000000
    endloop
  endfacet
endsolid Mesh
