solid Mesh
 facet normal -0 1 0
  outer loop
   vertex 0.5 0.25 7.25
   vertex 0.5 0.25 6.75
   vertex 0 0.25 6.75
  endloop
 endfacet
 facet normal 0 1 0
  outer loop
   vertex 0.5 0.25 7.25
   vertex 0 0.25 6.75
   vertex 0 0.25 7.25
  endloop
 endfacet
 facet normal -0 0 -1
  outer loop
   vertex 0.5 0.25 6.75
   vertex 0.5 -0.25 6.75
   vertex 0 -0.25 6.75
  endloop
 endfacet
 facet normal -0 0 -1
  outer loop
   vertex 0.5 0.25 6.75
   vertex 0 -0.25 6.75
   vertex 0 0.25 6.75
  endloop
 endfacet
 facet normal -0 0 1
  outer loop
   vertex 0.5 -0.25 7.25
   vertex 0.5 0.25 7.25
   vertex 0 0.25 7.25
  endloop
 endfacet
 facet normal -0 0 1
  outer loop
   vertex 0.5 -0.25 7.25
   vertex 0 0.25 7.25
   vertex 0 -0.25 7.25
  endloop
 endfacet
 facet normal 1 0 0
  outer loop
   vertex 0.5 0.25 6.75
   vertex 0.5 0.25 7.25
   vertex 0.5 -0.25 6.75
  endloop
 endfacet
 facet normal 1 0 0
  outer loop
   vertex 0.5 -0.25 6.75
   vertex 0.5 0.25 7.25
   vertex 0.5 -0.25 7.25
  endloop
 endfacet
 facet normal -1 0 0
  outer loop
   vertex 0 -0.155 7.155
   vertex 0 -0.25 6.75
   vertex 0 -0.25 7.25
  endloop
 endfacet
 facet normal -1 0 0
  outer loop
   vertex 0 -0.155 7.155
   vertex 0 -0.155 6.845
   vertex 0 -0.25 6.75
  endloop
 endfacet
 facet normal -1 0 0
  outer loop
   vertex 0 0.155 6.845
   vertex 0 0.25 6.75
   vertex 0 -0.25 6.75
  endloop
 endfacet
 facet normal -1 0 0
  outer loop
   vertex 0 0.155 6.845
   vertex 0 -0.25 6.75
   vertex 0 -0.155 6.845
  endloop
 endfacet
 facet normal -1 0 0
  outer loop
   vertex 0 0.25 7.25
   vertex 0 0.155 6.845
   vertex 0 0.155 7.155
  endloop
 endfacet
 facet normal -1 0 0
  outer loop
   vertex 0 0.25 7.25
   vertex 0 0.155 7.155
   vertex 0 -0.155 7.155
  endloop
 endfacet
 facet normal -1 0 0
  outer loop
   vertex 0 0.25 7.25
   vertex 0 0.25 6.75
   vertex 0 0.155 6.845
  endloop
 endfacet
 facet normal -1 0 0
  outer loop
   vertex 0 0.25 7.25
   vertex 0 -0.155 7.155
   vertex 0 -0.25 7.25
  endloop
 endfacet
 facet normal -0 -1 0
  outer loop
   vertex 0.5 -0.25 6.75
   vertex 0.5 -0.25 7.25
   vertex 0 -0.25 7.25
  endloop
 endfacet
 facet normal -0 -1 0
  outer loop
   vertex 0.5 -0.25 6.75
   vertex 0 -0.25 7.25
   vertex 0 -0.25 6.75
  endloop
 endfacet
 facet normal -0 0 1
  outer loop
   vertex 0 0.155 6.845
   vertex 0 -0.155 6.845
   vertex 0.31 -0.155 6.845
  endloop
 endfacet
 facet normal -0 0 1
  outer loop
   vertex 0 0.155 6.845
   vertex 0.31 -0.155 6.845
   vertex 0.31 0.155 6.845
  endloop
 endfacet
 facet normal -0 1 -0
  outer loop
   vertex 0 -0.155 6.845
   vertex 0 -0.155 7.155
   vertex 0.31 -0.155 7.155
  endloop
 endfacet
 facet normal -0 1 0
  outer loop
   vertex 0 -0.155 6.845
   vertex 0.31 -0.155 7.155
   vertex 0.31 -0.155 6.845
  endloop
 endfacet
 facet normal -0 0 -1
  outer loop
   vertex 0 -0.155 7.155
   vertex 0 0.155 7.155
   vertex 0.31 0.155 7.155
  endloop
 endfacet
 facet normal -0 0 -1
  outer loop
   vertex 0 -0.155 7.155
   vertex 0.31 0.155 7.155
   vertex 0.31 -0.155 7.155
  endloop
 endfacet
 facet normal -0 -1 -0
  outer loop
   vertex 0 0.155 7.155
   vertex 0 0.155 6.845
   vertex 0.31 0.155 6.845
  endloop
 endfacet
 facet normal 0 -1 0
  outer loop
   vertex 0 0.155 7.155
   vertex 0.31 0.155 6.845
   vertex 0.31 0.155 7.155
  endloop
 endfacet
 facet normal -1 0 0
  outer loop
   vertex 0.31 0.155 7.155
   vertex 0.31 0.155 6.845
   vertex 0.31 -0.155 6.845
  endloop
 endfacet
 facet normal -1 0 0
  outer loop
   vertex 0.31 0.155 7.155
   vertex 0.31 -0.155 6.845
   vertex 0.31 -0.155 7.155
  endloop
 endfacet
endsolid Mesh
