solid Mesh
 facet normal 0 1 0
  outer loop
   vertex 10 31 0
   vertex -120 31 0
   vertex -120 31 12
  endloop
 endfacet
 facet normal 0 1 -0
  outer loop
   vertex 10 31 0
   vertex -120 31 12
   vertex 10 31 12
  endloop
 endfacet
 facet normal 1 0 0
  outer loop
   vertex 10 1 0
   vertex 10 31 0
   vertex 10 31 12
  endloop
 endfacet
 facet normal 1 0 0
  outer loop
   vertex 10 1 0
   vertex 10 31 12
   vertex 10 1 12
  endloop
 endfacet
 facet normal 0 -1 0
  outer loop
   vertex -120 1 0
   vertex 10 1 0
   vertex 10 1 12
  endloop
 endfacet
 facet normal 0 -1 0
  outer loop
   vertex -120 1 0
   vertex 10 1 12
   vertex -120 1 12
  endloop
 endfacet
 facet normal -1 0 0
  outer loop
   vertex -120 31 0
   vertex -120 1 0
   vertex -120 1 12
  endloop
 endfacet
 facet normal -1 0 0
  outer loop
   vertex -120 31 0
   vertex -120 1 12
   vertex -120 31 12
  endloop
 endfacet
 facet normal 0 0 -1
  outer loop
   vertex -120 31 0
   vertex 10 1 0
   vertex -120 1 0
  endloop
 endfacet
 facet normal 0 0 -1
  outer loop
   vertex -120 31 0
   vertex 10 31 0
   vertex 10 1 0
  endloop
 endfacet
 facet normal 0 0 1
  outer loop
   vertex 10 1 12
   vertex -120 31 12
   vertex -120 1 12
  endloop
 endfacet
 facet normal 0 0 1
  outer loop
   vertex 10 31 12
   vertex -120 31 12
   vertex 10 1 12
  endloop
 endfacet
endsolid Mesh
