solid Mesh
 facet normal 0 1 0
  outer loop
   vertex 0.1 0.1 6.8
   vertex -0.1 0.1 6.8
   vertex -0.1 0.1 7
  endloop
 endfacet
 facet normal 0 1 -0
  outer loop
   vertex 0.1 0.1 6.8
   vertex -0.1 0.1 7
   vertex 0.1 0.1 7
  endloop
 endfacet
 facet normal -1 0 0
  outer loop
   vertex -0.1 0.1 6.8
   vertex -0.1 -0.1 6.8
   vertex -0.1 -0.1 7
  endloop
 endfacet
 facet normal -1 0 0
  outer loop
   vertex -0.1 0.1 6.8
   vertex -0.1 -0.1 7
   vertex -0.1 0.1 7
  endloop
 endfacet
 facet normal 1 0 0
  outer loop
   vertex 0.1 -0.1 6.8
   vertex 0.1 0.1 6.8
   vertex 0.1 0.1 7
  endloop
 endfacet
 facet normal 1 0 0
  outer loop
   vertex 0.1 -0.1 6.8
   vertex 0.1 0.1 7
   vertex 0.1 -0.1 7
  endloop
 endfacet
 facet normal 0 0 -1
  outer loop
   vertex -0.1 0.1 6.8
   vertex 0.1 0.1 6.8
   vertex -0.1 -0.1 6.8
  endloop
 endfacet
 facet normal 0 0 -1
  outer loop
   vertex -0.1 -0.1 6.8
   vertex 0.1 0.1 6.8
   vertex 0.1 -0.1 6.8
  endloop
 endfacet
 facet normal 0 0 1
  outer loop
   vertex 0.022 -0.022 7
   vertex -0.1 -0.1 7
   vertex 0.1 -0.1 7
  endloop
 endfacet
 facet normal 0 0 1
  outer loop
   vertex 0.022 -0.022 7
   vertex -0.022 -0.022 7
   vertex -0.1 -0.1 7
  endloop
 endfacet
 facet normal 0 0 1
  outer loop
   vertex -0.022 0.022 7
   vertex -0.1 0.1 7
   vertex -0.1 -0.1 7
  endloop
 endfacet
 facet normal 0 0 1
  outer loop
   vertex -0.022 0.022 7
   vertex -0.1 -0.1 7
   vertex -0.022 -0.022 7
  endloop
 endfacet
 facet normal 0 0 1
  outer loop
   vertex 0.1 0.1 7
   vertex -0.022 0.022 7
   vertex 0.022 0.022 7
  endloop
 endfacet
 facet normal 0 0 1
  outer loop
   vertex 0.1 0.1 7
   vertex 0.022 0.022 7
   vertex 0.022 -0.022 7
  endloop
 endfacet
 facet normal 0 0 1
  outer loop
   vertex 0.1 0.1 7
   vertex -0.1 0.1 7
   vertex -0.022 0.022 7
  endloop
 endfacet
 facet normal 0 0 1
  outer loop
   vertex 0.1 0.1 7
   vertex 0.022 -0.022 7
   vertex 0.1 -0.1 7
  endloop
 endfacet
 facet normal 0 -1 0
  outer loop
   vertex -0.1 -0.1 6.8
   vertex 0.1 -0.1 6.8
   vertex 0.1 -0.1 7
  endloop
 endfacet
 facet normal 0 -1 0
  outer loop
   vertex -0.1 -0.1 6.8
   vertex 0.1 -0.1 7
   vertex -0.1 -0.1 7
  endloop
 endfacet
 facet normal 1 0 0
  outer loop
   vertex -0.022 0.022 7
   vertex -0.022 -0.022 7
   vertex -0.022 -0.022 6.95
  endloop
 endfacet
 facet normal 1 0 0
  outer loop
   vertex -0.022 0.022 7
   vertex -0.022 -0.022 6.95
   vertex -0.022 0.022 6.95
  endloop
 endfacet
 facet normal -0 1 0
  outer loop
   vertex -0.022 -0.022 7
   vertex 0.022 -0.022 7
   vertex 0.022 -0.022 6.95
  endloop
 endfacet
 facet normal 0 1 0
  outer loop
   vertex -0.022 -0.022 7
   vertex 0.022 -0.022 6.95
   vertex -0.022 -0.022 6.95
  endloop
 endfacet
 facet normal -1 0 0
  outer loop
   vertex 0.022 -0.022 7
   vertex 0.022 0.022 7
   vertex 0.022 0.022 6.95
  endloop
 endfacet
 facet normal -1 0 0
  outer loop
   vertex 0.022 -0.022 7
   vertex 0.022 0.022 6.95
   vertex 0.022 -0.022 6.95
  endloop
 endfacet
 facet normal -0 -1 0
  outer loop
   vertex 0.022 0.022 7
   vertex -0.022 0.022 7
   vertex -0.022 0.022 6.95
  endloop
 endfacet
 facet normal 0 -1 -0
  outer loop
   vertex 0.022 0.022 7
   vertex -0.022 0.022 6.95
   vertex 0.022 0.022 6.95
  endloop
 endfacet
 facet normal 0 0 1
  outer loop
   vertex 0.022 0.022 6.95
   vertex -0.022 0.022 6.95
   vertex -0.022 -0.022 6.95
  endloop
 endfacet
 facet normal 0 0 1
  outer loop
   vertex 0.022 0.022 6.95
   vertex -0.022 -0.022 6.95
   vertex 0.022 -0.022 6.95
  endloop
 endfacet
endsolid Mesh
